<?xml version="1.0" standalone="no"?><!DOCTYPE svg PUBLIC "-//W3C//DTD SVG 1.1//EN" "http://www.w3.org/Graphics/SVG/1.1/DTD/svg11.dtd"><svg t="1611384908842" class="icon" viewBox="0 0 1498 1024" version="1.1" xmlns="http://www.w3.org/2000/svg" p-id="4818" xmlns:xlink="http://www.w3.org/1999/xlink" width="292.578125" height="200"><defs><style type="text/css"></style></defs><path d="M19.476 19.476h83.149V0H0v102.625h19.476V19.476z m0 985.048h83.149V1024H0V921.375h19.476v83.149zM1479.444 19.476h-83.148V0h102.624v102.625h-19.476V19.476z m0 985.048h-83.148V1024h102.624V921.375h-19.476v83.149z" fill="#44C8C6" p-id="4819"></path><path d="M1381.314 869.688c0 23.971-19.476 42.698-42.698 42.698H120.603c-23.971 0-42.698-19.476-42.698-42.698v-752.83c0-23.971 19.476-42.699 42.698-42.699h1218.013c11.236 0 22.473 4.495 30.712 12.735 8.24 8.24 12.735 18.727 12.735 30.712l-0.75 752.082z" fill="#F3F9FF" p-id="4820"></path><path d="M196.26 205.25h93.636v47.94H196.26v-47.94z m0 120.602h93.636v47.942H196.26v-47.942z m0 119.854h93.636v47.941H196.26v-47.941zM1208.275 367.8c1.498 0.75 2.996 2.247 4.495 2.996l4.494 2.997v5.243c0 14.982-1.498 28.466-5.993 38.204-3.745 8.989-8.989 16.48-16.48 20.225-5.243 17.978-11.236 34.458-19.476 48.69-9.738 16.48-22.472 28.466-40.45 35.208-8.24 2.996-28.466 4.494-47.942 3.745-19.476 0-38.203-2.247-45.694-5.993-16.48-7.49-27.716-20.225-36.705-35.956-7.491-13.483-12.735-29.214-17.23-45.694-7.49-3.745-13.483-10.487-17.228-20.225-4.495-10.488-5.993-23.222-5.993-38.953v-5.243l4.495-2.997c0.749-0.749 2.247-1.498 3.745-2.247-5.244-62.174-2.996-84.647 20.225-110.865 44.946-36.705 147.57-35.207 192.515-2.247 31.462 29.964 32.96 62.174 23.222 113.112z m-93.636 179.031l0.75 14.233-8.24 13.484 11.236 76.406 47.941-103.373 72.662-2.248c37.454 35.207 62.174 119.854 56.181 174.537H888.416c0.749-47.941 9.738-130.34 57.68-172.29l65.919 0.75 61.425 101.875 11.236-76.406-8.24-13.484 0.75-14.233c16.479-0.749 21.723-0.749 37.453 0.75z m54.684-201.504c-29.215 5.993-71.913 10.488-106.37-8.989-13.484-7.49-32.211 7.491-47.942 5.993-5.244 9.738-8.99 20.225-10.487 31.462l-2.247 8.989-9.739-0.75c-2.247 0-3.745 0-5.243 0.75-0.75 0-1.498 0.749-2.247 0.749 0 10.487 1.498 18.727 4.494 25.469 2.247 5.992 5.993 8.989 9.738 10.487l5.244 1.498 1.498 5.244c4.494 17.229 9.738 32.96 17.229 45.694 6.742 11.985 14.982 21.723 26.967 26.967 4.495 2.247 20.974 3.745 37.454 3.745 17.23 0 35.207-0.749 41.2-2.996 12.734-4.494 22.473-14.233 29.963-26.218 7.491-13.483 13.484-29.963 17.978-47.941l1.499-5.244 5.243-2.247c3.746-1.498 7.491-5.244 9.738-10.487 2.248-6.742 3.746-14.982 4.495-24.72-0.75 0-1.498-0.75-2.247-0.75-1.499-0.748-3.746-0.748-5.244-0.748l-8.989 0.749-1.498-8.99c-2.997-8.24-5.993-17.977-10.487-27.716zM324.354 205.25h280.907v47.942H324.354v-47.942z m0 120.603h280.907v47.942H324.354v-47.942z m0 119.854h280.907v47.941H324.354v-47.941z m149.068 314.616h423.233v47.941H473.422v-47.941z m-277.162 0h247.948v47.941H196.26v-47.941z" fill="#DDDDDD" p-id="4821"></path><path d="M917.63 332.594h-46.443s-23.971-62.923-39.702-62.923H657.697c-14.982 0-47.192 62.923-47.192 62.923h-32.96c-2.996-5.993-14.233-23.97-17.978-23.97h-53.185c-4.495 0-14.233 23.97-14.233 25.468 0 1.498 0.75 2.997 1.498 4.495-29.963 12.734-48.69 41.2-48.69 74.16V630.73c0 20.974 8.24 41.2 23.221 56.93 14.982 14.982 35.208 23.222 56.931 23.222h392.52c44.197 0 80.153-35.956 80.902-79.403V412.746c-0.749-44.196-36.705-80.152-80.901-80.152z m-364.056 69.665c-5.992 5.993-14.232 8.989-22.472 8.989s-16.48-2.996-22.473-8.989c-5.993-5.993-8.989-14.233-8.989-22.473 0-17.229 14.233-31.461 31.462-31.461 8.24 0 16.48 2.996 22.472 8.989 5.993 5.993 8.99 14.232 8.99 22.472s-2.997 16.48-8.99 22.473z m191.017 253.19c-82.4 0-149.817-66.668-149.817-149.816 0-82.4 67.418-149.817 149.817-149.817 83.149 0 149.817 66.668 149.817 149.817 0 82.4-66.668 149.817-149.817 149.817z" fill="#44C8C6" p-id="4822"></path><path d="M744.591 608.257c-56.93 0-102.625-45.694-102.625-102.624s45.695-102.625 102.625-102.625 102.625 45.694 102.625 102.625-46.444 102.624-102.625 102.624z" fill="#44C8C6" p-id="4823"></path></svg>