<?xml version="1.0" standalone="no"?><!DOCTYPE svg PUBLIC "-//W3C//DTD SVG 1.1//EN" "http://www.w3.org/Graphics/SVG/1.1/DTD/svg11.dtd"><svg t="1611384874063" class="icon" viewBox="0 0 1498 1024" version="1.1" xmlns="http://www.w3.org/2000/svg" p-id="3722" xmlns:xlink="http://www.w3.org/1999/xlink" width="292.578125" height="200"><defs><style type="text/css"></style></defs><path d="M19.476 19.476h83.149V0H0v102.625h19.476V19.476z m0 985.048h83.149V1024H0V921.375h19.476v83.149zM1479.444 19.476h-83.148V0h102.624v102.625h-19.476V19.476z m0 985.048h-83.148V1024h102.624V921.375h-19.476v83.149z" fill="#44C8C6" p-id="3723"></path><path d="M1400.79 888.416c0 23.97-19.476 42.697-42.698 42.697H140.08c-23.97 0-42.698-19.476-42.698-42.697V135.584c0-23.97 19.476-42.697 42.698-42.697h1218.013c11.236 0 22.473 4.494 30.713 12.734 8.24 8.24 12.734 18.727 12.734 30.713l-0.749 752.082z" fill="#F3F9FF" p-id="3724"></path><path d="M379.786 471.924c32.96 0 62.174-10.487 88.392-32.21v-42.699H291.394v42.698c26.218 21.724 56.182 32.21 88.392 32.21z" fill="#E7E8EE" p-id="3725"></path><path d="M259.184 331.845c0 65.92 53.185 118.355 118.355 118.355s118.356-53.185 118.356-118.355c0-65.92-53.185-118.356-118.356-118.356-65.17 0-118.355 52.436-118.355 118.356z" fill="#F1F1F7" p-id="3726"></path><path d="M280.907 358.812h198.508v49.44H280.907v-49.44z" fill="#F1F1F7" p-id="3727"></path><path d="M287.649 331.845c0 50.189 40.45 90.64 90.64 90.64s89.89-40.451 89.89-90.64-40.451-90.64-90.64-90.64-89.89 40.451-89.89 90.64z" fill="#DDE0ED" p-id="3728"></path><path d="M355.067 355.067h49.44a6.714 6.714 0 0 1 6.741 6.741v3.746h-63.672v-3.746c0-3.745 3.745-6.741 7.49-6.741z m-32.96 20.974H433.72c8.989 0 15.73 2.996 15.73 6.742v3.745H306.376v-3.745c0-3.746 7.49-6.742 15.73-6.742z" fill="#F1F1F7" p-id="3729"></path><path d="M347.576 365.554h64.421v10.487h-63.672v-10.487z" fill="#E4E5E8" p-id="3730"></path><path d="M379.786 287.649l-12.734 6.742 2.247-13.484-9.738-10.487 14.233-2.247 5.992-12.735 6.742 12.735 13.484 2.247-9.738 9.738 2.247 13.484-12.735-5.993z m-20.974 149.068c0 11.985 9.738 20.974 20.974 20.974s20.975-9.738 20.975-20.974-9.738-20.974-20.975-20.974-20.974 8.989-20.974 20.974z m-28.465-143.075l-6.742 2.996 1.498-6.742-5.243-5.243 6.741-0.75 3.746-6.741 2.996 6.741 6.742 0.75-5.244 5.243 1.498 6.742-5.992-2.996z m24.72 24.72l-6.742 2.996 1.498-6.742-5.244-5.244 6.742-0.749 3.746-6.742 2.996 6.742 6.742 0.75-4.495 5.243 1.498 6.742-6.741-2.997z m49.44 0l-6.743 2.996 1.499-6.742-5.244-5.244 6.742-0.749 3.745-6.742 2.997 6.742 6.741 0.75-4.494 5.243 1.498 6.742-6.742-2.997z m24.719-24.72l-6.742 2.996 1.498-6.742-5.243-5.243 6.742-0.75 3.745-6.741 2.996 6.741 6.742 0.75-4.494 5.243 1.498 6.742-6.742-2.996z" fill="#FFFFFF" p-id="3731"></path><path d="M549.08 583.538h689.908v78.654H549.08v-78.654z m0 149.068h689.908v78.654H549.08v-78.654z m75.657-518.368v15.731h32.96v44.196h-8.989v-5.243h-23.97v30.712h-8.99v-30.712h-23.97v5.243h-8.99V229.22h32.96v-15.73l8.99 0.748z m-8.24 46.444v-21.724h-23.97v21.724h23.97z m32.96 0v-21.724h-23.97v21.724h23.97z m24.72-12.735l-2.996-8.989c11.236-6.741 19.476-14.981 24.72-24.72l7.49 3.746c-2.996 5.244-6.741 10.487-10.487 14.982v29.963h-8.24v-22.473c-3.745 2.248-7.49 5.244-10.487 7.491z m33.709 20.226v-8.24h8.989v8.24h35.956v8.989h-35.956v22.472h-8.99v-22.472H672.68v-8.24h35.207z m14.982-8.24c-5.993 0-8.99-2.997-8.99-8.99V245.7c-3.745 1.498-7.49 2.996-11.985 4.495l-5.243-6.742c5.992-2.247 11.985-3.746 16.48-6.742v-20.225h8.24v15.73c8.24-4.494 15.73-8.988 20.974-14.232l5.993 5.993c-7.491 6.741-17.23 12.734-26.968 17.229v7.49c0 1.499 0.75 2.997 2.997 2.997H737.1c2.247 0 3.746-0.75 4.495-1.498 0.749-0.75 2.247-4.495 2.247-10.488l8.24 2.997c-0.75 8.24-2.247 12.734-4.495 14.232-2.247 1.499-5.243 2.248-8.989 2.248 1.499 0.749-15.73 0.749-15.73 0.749z m84.646-24.72c5.244 24.72 18.727 42.698 39.702 56.181l-5.993 7.491c-17.978-11.985-29.963-27.716-36.705-47.192-5.993 19.476-18.727 34.458-38.203 47.192l-5.244-7.49c24.72-14.982 37.454-35.957 38.203-62.175v-14.232h8.99c0 7.49 0 14.232-0.75 20.225z m63.673 51.687c7.49-1.498 14.981-3.746 22.472-6.742l2.247 8.24c-8.989 2.996-19.476 5.993-32.96 8.24l-2.247-8.24c1.499-0.75 2.248-2.247 2.248-4.495v-67.417h66.668v28.465h-24.72c0 3.745 0.75 7.49 1.499 11.236h29.214v8.24H908.64c0.749 1.498 0.749 3.746 1.498 5.244 2.996 6.742 5.993 11.236 8.989 14.232 2.996 2.997 5.993 4.495 8.24 4.495 0.749 0 1.498-0.75 2.247-2.247 0.75-1.498 0.75-5.244 1.498-11.237l7.491 4.495c-1.498 7.49-2.996 12.734-4.494 14.982-1.498 2.247-3.746 3.745-5.993 3.745-4.494 0-8.989-2.247-13.483-6.742-4.495-4.494-8.99-10.487-12.735-17.978-0.749-2.247-2.247-5.243-2.996-8.24h-28.466l0.75 21.724z m0-60.676v11.985h49.44v-11.985h-49.44z m0 20.225v11.236h26.218c-0.75-3.745-1.499-6.741-1.499-11.236h-24.72z m108.617 30.713c-7.49 8.24-17.229 15.73-27.716 22.472l-5.993-7.49c11.236-5.993 20.225-12.735 27.716-20.226l5.993 5.244z m-13.484-44.945v-17.979h8.99v17.979h23.97v-17.979h8.99v17.979H1024v8.24h-15.73v19.476h20.225v8.24h-82.4v-8.24h20.225v-19.477H951.34v-8.24h14.981z m32.96 28.465v-19.476h-23.97v19.476h23.97z m29.964 31.461l-6.742 6.742c-6.742-6.742-14.982-14.232-26.218-21.723l6.742-5.993c9.738 7.49 18.727 14.233 26.218 20.974z m25.469-53.185v-11.236c-4.495 0.75-8.24 0.75-12.735 1.498l-2.996-7.49c14.232-0.75 25.469-3.746 34.458-6.742l4.494 6.741c-4.494 1.499-9.738 2.997-14.232 4.495v12.734h14.981v8.24h-14.981v3.746c5.243 4.494 10.487 9.738 15.73 14.981l-5.243 7.491c-4.495-5.992-7.491-10.487-10.487-14.232v38.952h-8.24v-36.705c-3.746 7.49-8.24 14.982-14.233 20.974l-3.745-9.738c8.24-7.49 14.232-15.73 17.978-25.469h-14.982v-8.24h14.233z m62.923 56.182h-8.24v-6.742h-19.476v7.49h-8.24v-75.657h36.705l-0.75 74.909z m-8.24-14.982v-52.436h-19.476v52.436h19.476z m100.377 18.727h-8.989v-3.745h-59.178v3.745h-8.24v-80.901h77.156v80.901z m-8.989-11.985v-60.676h-59.178V286.9h59.178z m-7.49-53.934v7.49h-17.979v11.237h14.982v7.49h-14.982v12.735h8.99c-1.499-3.745-3.746-6.742-5.244-9.738l6.741-2.247c2.248 2.996 3.746 5.992 5.993 9.738l-5.243 2.247h8.989v7.49h-50.938v-7.49h20.974v-12.734h-14.982v-7.491h14.982v-11.237h-18.727v-7.49h46.443zM584.286 439.713l-6.742-5.992c6.742-11.237 9.738-26.218 9.738-44.196v-31.462h69.665v23.97H631.48v8.99h28.465v8.24H631.48v8.989h22.473v32.21h-8.24v-3.745h-35.956v3.745h-8.24v-32.21h20.974v-8.99h-26.967c-1.498 14.982-4.494 28.466-11.236 40.451z m11.985-73.41v8.24h52.436v-8.24h-52.436z m0 15.73v8.99h26.967v-8.99h-26.967z m49.44 45.695v-11.985h-35.956v11.985h35.956z m88.392 0c7.49-1.498 14.982-3.746 22.472-6.742l2.248 8.24c-8.99 2.996-19.477 5.993-32.96 8.24l-2.247-8.24c1.498-0.749 2.247-2.247 2.247-4.494v-67.418h66.669v29.214h-24.72c0 3.746 0.749 7.491 1.498 11.236h29.214v8.24h-26.967c0.75 1.499 0.75 3.746 1.498 5.244 2.997 6.742 5.993 11.236 8.99 14.233 2.996 2.996 5.992 4.494 8.24 4.494 0.748 0 1.497-0.749 2.247-2.247 0.749-1.498 0.749-5.244 1.498-11.236l7.49 4.494c-1.498 7.491-2.996 12.735-4.494 14.982-1.498 2.247-3.745 3.745-5.993 3.745-4.494 0-8.989-2.247-13.483-6.742-4.495-4.494-8.99-10.487-12.735-17.978-0.749-2.247-2.247-5.243-2.996-8.24h-27.716v20.975z m0-61.425v11.985h49.44v-11.985h-49.44z m0 20.225v10.487h26.218c-0.75-3.745-1.498-6.741-1.498-11.236l-24.72 0.75z m163.3-31.461l-2.247 6.741h26.218v38.953c3.746-4.495 6.742-9.738 8.99-14.233l7.49 4.495c-4.494 8.24-9.738 14.981-16.48 20.974v18.727c0 5.993-2.996 8.99-8.24 8.99h-9.738l-2.247-8.24h8.989c1.498 0 2.247-0.75 2.247-2.997v-9.738l-4.494 2.996c-12.735 7.491-28.466 12.735-46.444 15.731l-3.745-7.49c22.473-3.746 39.702-9.739 50.189-17.23h-50.189v-8.24h10.487v-42.698h18.727c0.75-2.247 1.499-5.243 2.248-8.24l8.24 1.499z m15.731 21.723v-6.742H876.43v6.742h36.705z m0 13.484v-6.742H876.43v6.742h36.705z m0 14.981v-7.49H876.43v7.49h36.705z m105.621-47.192c-2.247 6.742-5.243 13.483-8.989 19.476v62.174h-8.989v-48.69l-8.24 9.738-2.996-8.99c9.738-10.486 16.48-22.472 20.974-36.704l8.24 2.996z m3.746 40.45v-8.24c-1.498 1.499-2.997 2.997-3.746 4.495l-6.741-5.993c8.24-8.24 14.981-19.476 19.476-32.96l8.24 2.997c-4.495 12.734-9.738 23.222-16.48 31.462h41.2c0 20.225 0 32.96-1.499 38.203-0.749 6.742-5.243 9.738-11.985 9.738h-9.738l-2.247-8.24c3.745 0 7.49 0.75 10.487 0.75s4.494-2.248 5.244-5.993c0.749-2.248 0.749-11.237 0.749-25.47h-13.484c-1.498 9.739-3.745 17.23-6.742 23.222-2.996 6.742-8.24 12.735-14.981 17.978l-5.993-6.741c5.993-4.495 9.738-8.99 12.734-14.233 2.248-5.244 4.495-11.236 5.993-19.476l-10.487-1.498z m53.185-11.985l-5.993 6.742c-11.236-8.99-18.727-20.225-22.472-34.458l7.49-4.495c3.746 13.484 11.237 23.971 20.975 32.211z m74.16-4.494v37.454c2.247-2.247 5.243-4.495 8.24-7.49l2.247 8.988c-5.993 5.244-11.237 9.738-17.978 14.233l-2.997-7.491c1.498-1.498 2.247-2.996 2.247-4.495v-32.96h-12.734v-8.24h20.974z m5.992-12.735l-5.993 5.993c-3.745-4.495-8.24-8.99-14.981-13.484l5.992-5.992c5.993 4.494 11.237 8.989 14.982 13.483z" fill="#DDDDDD" p-id="3732"></path><path d="M1159.584 367.052v-8.24h52.436v8.24h-17.978v23.97h16.48v8.24h-16.48v29.215h19.477v8.24h-56.93v-8.24h8.24v-47.192h8.239v47.192h11.236v-61.425h-24.72z" fill="#E2E5EF" p-id="3733"></path><path d="M917.63 332.594h-46.443s-23.971-62.923-39.702-62.923H657.697c-14.982 0-47.192 62.923-47.192 62.923h-32.96c-2.996-5.993-14.233-23.97-17.978-23.97h-53.185c-4.495 0-14.233 23.97-14.233 25.468 0 1.498 0.75 2.997 1.498 4.495-29.963 12.734-48.69 41.2-48.69 74.16V630.73c0 20.974 8.24 41.2 23.221 56.93 14.982 14.982 35.208 23.222 56.931 23.222h392.52c44.197 0 80.153-35.956 80.902-79.403V412.746c-0.749-44.196-36.705-80.152-80.901-80.152z m-364.056 69.665c-5.992 5.993-14.232 8.989-22.472 8.989s-16.48-2.996-22.473-8.989c-5.993-5.993-8.989-14.233-8.989-22.473 0-17.229 14.233-31.461 31.462-31.461 8.24 0 16.48 2.996 22.472 8.989 5.993 5.993 8.99 14.232 8.99 22.472s-2.997 16.48-8.99 22.473z m191.017 253.19c-82.4 0-149.817-66.668-149.817-149.816 0-82.4 67.418-149.817 149.817-149.817 83.149 0 149.817 66.668 149.817 149.817 0 82.4-66.668 149.817-149.817 149.817z" fill="#44C8C6" p-id="3734"></path><path d="M744.591 608.257c-56.93 0-102.625-45.694-102.625-102.624s45.695-102.625 102.625-102.625 102.625 45.694 102.625 102.625-46.444 102.624-102.625 102.624z" fill="#44C8C6" p-id="3735"></path></svg>