<?xml version="1.0" standalone="no"?><!DOCTYPE svg PUBLIC "-//W3C//DTD SVG 1.1//EN" "http://www.w3.org/Graphics/SVG/1.1/DTD/svg11.dtd"><svg t="1587714227186" class="icon" viewBox="0 0 1024 1024" version="1.1" xmlns="http://www.w3.org/2000/svg" p-id="3874" xmlns:xlink="http://www.w3.org/1999/xlink" width="32" height="32"><defs><style type="text/css"></style></defs><path d="M128 469.333333h85.333333v85.333334H128v-85.333334m341.333333-256h85.333334v170.666667h-85.333334V213.333333m-85.333333 256h170.666667v170.666667h-85.333334v-85.333333H384v-85.333334m256 0h85.333333v85.333334h85.333334v-85.333334h85.333333v85.333334h-85.333333v85.333333h85.333333v170.666667h-85.333333v85.333333h-85.333334v-85.333333h-170.666666v85.333333h-85.333334v-170.666667h170.666667v-85.333333h85.333333v-85.333333h-85.333333v-85.333334m170.666667 341.333334v-170.666667h-85.333334v170.666667h85.333334M640 128h256v256h-256V128m85.333333 85.333333v85.333334h85.333334V213.333333h-85.333334M128 128h256v256H128V128m85.333333 85.333333v85.333334h85.333334V213.333333H213.333333M128 640h256v256H128v-256m85.333333 85.333333v85.333334h85.333334v-85.333334H213.333333z" fill="#cac6c7" p-id="3875"></path></svg>